<svg width="170" height="100" viewBox="0 0 170 100" fill="none" xmlns="http://www.w3.org/2000/svg">
<path d="M22.4569 98.6038H0L34.2178 0H61.2242L95.3936 98.6038H72.9367L48.1082 22.5325H47.3338L22.4569 98.6038ZM21.0534 59.8459H74.0982V76.1194H21.0534V59.8459Z" fill="#1E293B"/>
<path d="M128.135 100C123.392 100 119.165 99.1815 115.455 97.5445C111.744 95.8755 108.808 93.42 106.646 90.1781C104.517 86.9042 103.452 82.8278 103.452 77.949C103.452 73.8405 104.21 70.39 105.727 67.5975C107.243 64.805 109.308 62.5582 111.922 60.857C114.535 59.1558 117.504 57.8719 120.827 57.0053C124.183 56.1387 127.7 55.5288 131.378 55.1757C135.702 54.7264 139.186 54.3091 141.832 53.9239C144.478 53.5067 146.398 52.8968 147.591 52.0944C148.785 51.2919 149.382 50.1043 149.382 48.5315V48.2427C149.382 45.1934 148.414 42.8342 146.478 41.1651C144.575 39.4961 141.864 38.6615 138.347 38.6615C134.637 38.6615 131.684 39.48 129.49 41.117C127.296 42.7219 125.844 44.744 125.135 47.1834L106.065 45.6428C107.033 41.1491 108.937 37.2653 111.777 33.9913C114.616 30.6853 118.278 28.1496 122.763 26.3842C127.28 24.5867 132.507 23.688 138.444 23.688C142.574 23.688 146.527 24.1695 150.302 25.1324C154.109 26.0953 157.481 27.5879 160.417 29.61C163.386 31.6322 165.725 34.2321 167.435 37.4097C169.145 40.5553 170 44.3268 170 48.7241V98.6038H150.447V88.3486H149.866C148.672 90.6596 147.075 92.6978 145.075 94.4632C143.074 96.1964 140.67 97.5606 137.863 98.5556C135.056 99.5185 131.814 100 128.135 100ZM134.04 85.845C137.073 85.845 139.751 85.2512 142.074 84.0636C144.397 82.8438 146.22 81.2069 147.543 79.1526C148.866 77.0984 149.527 74.7713 149.527 72.1714V64.3235C148.882 64.7408 147.995 65.126 146.865 65.4791C145.768 65.8 144.526 66.105 143.139 66.3938C141.751 66.6506 140.364 66.8913 138.977 67.116C137.589 67.3086 136.331 67.4852 135.201 67.6456C132.781 67.9987 130.668 68.5604 128.861 69.3308C127.054 70.1011 125.651 71.1443 124.651 72.4603C123.65 73.7442 123.15 75.3491 123.15 77.2749C123.15 80.0674 124.167 82.2019 126.199 83.6784C128.264 85.1228 130.878 85.845 134.04 85.845Z" fill="#1E293B"/>
</svg>
