<svg width="154" height="100" viewBox="0 0 154 100" fill="none" xmlns="http://www.w3.org/2000/svg">
<path d="M12.5008 98.2726H0L36.1561 0H48.4646L84.6207 98.2726H72.1199L42.695 15.547H41.9257L12.5008 98.2726ZM17.1165 59.8848H67.5042V70.4415H17.1165V59.8848Z" fill="#1E293B"/>
<path d="M120.152 100C115.472 100 111.225 99.1203 107.411 97.3608C103.596 95.5694 100.567 92.9942 98.3234 89.6353C96.0797 86.2444 94.9579 82.1497 94.9579 77.3512C94.9579 73.1286 95.7912 69.7057 97.458 67.0825C99.1248 64.4274 101.352 62.348 104.141 60.8445C106.93 59.341 110.007 58.2214 113.372 57.4856C116.77 56.7179 120.184 56.11 123.613 55.6622C128.101 55.0864 131.739 54.6545 134.528 54.3666C137.348 54.0467 139.4 53.5189 140.682 52.7831C141.996 52.0473 142.653 50.7678 142.653 48.9443V48.5605C142.653 43.826 141.355 40.1472 138.759 37.524C136.194 34.9008 132.3 33.5893 127.075 33.5893C121.658 33.5893 117.411 34.7729 114.334 37.1401C111.257 39.5074 109.093 42.0345 107.843 44.7217L97.0734 40.8829C98.9966 36.4043 101.561 32.9175 104.766 30.4223C108.004 27.8951 111.529 26.1356 115.344 25.144C119.19 24.1203 122.972 23.6084 126.691 23.6084C129.063 23.6084 131.787 23.8964 134.864 24.4722C137.973 25.016 140.97 26.1516 143.855 27.8791C146.772 29.6065 149.192 32.2137 151.115 35.7006C153.038 39.1875 154 43.858 154 49.7121V98.2726H142.653V88.2917H142.076C141.307 89.8912 140.025 91.6027 138.23 93.4261C136.435 95.2495 134.047 96.801 131.066 98.0806C128.085 99.3602 124.447 100 120.152 100ZM121.883 89.8273C126.37 89.8273 130.152 88.9475 133.229 87.1881C136.339 85.4287 138.679 83.1574 140.249 80.3743C141.852 77.5912 142.653 74.6641 142.653 71.5931V61.2284C142.172 61.8042 141.115 62.3321 139.48 62.8119C137.877 63.2598 136.018 63.6596 133.903 64.0115C131.819 64.3314 129.784 64.6193 127.796 64.8752C125.841 65.0992 124.255 65.2911 123.037 65.4511C120.088 65.8349 117.331 66.4587 114.767 67.3225C112.235 68.1542 110.183 69.4178 108.613 71.1132C107.074 72.7767 106.305 75.048 106.305 77.9271C106.305 81.8618 107.763 84.8368 110.68 86.8522C113.629 88.8356 117.363 89.8273 121.883 89.8273Z" fill="#1E293B"/>
</svg>
